<svg id="Layer_1" data-name="Layer 1" xmlns="http://www.w3.org/2000/svg" viewBox="0 0 841.88976 595.27559"><defs><style>.cls-1,.cls-2,.cls-3,.cls-4{fill:#6d2077;}.cls-1{opacity:0.85;}.cls-2{opacity:0.7;}.cls-3{opacity:0.55;}.cls-4{opacity:0.38;}</style></defs><title>Mantu_M_Mauve</title><path class="cls-1" d="M545.29233,379.39966a34.10645,34.10645,0,0,1-31.47594-20.96124L457.26873,223.101a34.098,34.098,0,1,1,62.924-26.29216l56.54766,135.3374a34.11813,34.11813,0,0,1-31.44806,47.2534Z"/><path class="cls-2" d="M420.91877,379.39811a34.11221,34.11221,0,0,1-30.46148-49.37523l67.78563-135.3374a34.09785,34.09785,0,1,1,60.97563,30.53892L451.43292,360.5618A34.09965,34.09965,0,0,1,420.91877,379.39811Z"/><path class="cls-3" d="M420.97143,379.39811a34.09986,34.09986,0,0,1-30.51414-18.83476L322.6701,225.226a34.09854,34.09854,0,1,1,60.97563-30.542l67.78719,135.3374a34.11165,34.11165,0,0,1-30.46149,49.37678Z"/><path class="cls-4" d="M296.5971,379.39966a34.11872,34.11872,0,0,1-31.44806-47.2534l56.54688-135.3374a34.098,34.098,0,1,1,62.924,26.29216L328.073,358.43842A34.10967,34.10967,0,0,1,296.5971,379.39966Z"/></svg>